<svg width="100" height="33" viewBox="0 0 100 33" fill="none" xmlns="http://www.w3.org/2000/svg">
<path d="M0 0L5.07351 5.07015C7.12837 3.42673 9.60046 2.38832 12.2125 2.0714C14.8246 1.75448 17.4733 2.17158 19.8615 3.27591C22.2497 4.38024 24.2831 6.12813 25.7334 8.32353C27.1838 10.5189 27.9937 13.075 28.0725 15.705V16.1188V32.7221L23.0058 27.652C20.9528 29.2973 18.4819 30.3378 15.8704 30.6568C13.2589 30.9757 10.6102 30.5605 8.22153 29.4578C5.83289 28.355 3.79889 26.6083 2.34782 24.4138C0.896757 22.2192 0.0860601 19.6637 0.00672879 17.0339V16.6201L0 0ZM3.46869 8.37398V16.6033C3.46946 18.5402 3.99655 20.4406 4.99361 22.1012C5.99067 23.7618 7.42023 25.1202 9.12949 26.0314C10.8388 26.9425 12.7635 27.372 14.6979 27.2741C16.6324 27.1761 18.5039 26.5543 20.1124 25.4752L20.3883 25.2868L4.14494 9.05023L3.46869 8.37398ZM7.96689 7.24691L7.69101 7.43868L23.931 23.6719L24.6038 24.3448V16.1188C24.6034 14.1825 24.0768 12.2827 23.0803 10.6224C22.0839 8.96218 20.655 7.60391 18.9464 6.69279C17.2378 5.78166 15.3138 5.35194 13.3799 5.44954C11.4461 5.54714 9.57505 6.16839 7.96689 7.24691ZM49.2884 7.95007C50.8348 7.94141 52.349 8.3921 53.639 9.245C54.9289 10.0979 55.9366 11.3146 56.5342 12.7409C57.1319 14.1672 57.2926 15.7388 56.9959 17.2565C56.6993 18.7742 55.9587 20.1697 54.8681 21.266C53.7774 22.3623 52.3858 23.1101 50.8697 23.4146C49.3535 23.7191 47.7811 23.5666 46.3517 22.9763C44.9224 22.3861 43.7005 21.3847 42.8409 20.0992C41.9813 18.8137 41.5228 17.3019 41.5234 15.7555C41.5203 14.733 41.7187 13.7199 42.1074 12.7741C42.496 11.8284 43.0672 10.9685 43.7884 10.2436C44.5095 9.5187 45.3664 8.94304 46.3102 8.5495C47.2539 8.15597 48.2659 7.95228 49.2884 7.95007ZM92.1475 7.95007C93.6939 7.94141 95.2081 8.3921 96.498 9.245C97.788 10.0979 98.7956 11.3146 99.3933 12.7409C99.9909 14.1672 100.152 15.7388 99.855 17.2565C99.5584 18.7742 98.8178 20.1697 97.7272 21.266C96.6365 22.3623 95.2449 23.1101 93.7287 23.4146C92.2126 23.7191 90.6402 23.5666 89.2108 22.9763C87.7814 22.3861 86.5595 21.3847 85.6999 20.0992C84.8404 18.8137 84.3818 17.3019 84.3825 15.7555C84.3789 14.7337 84.5767 13.7212 84.9646 12.7759C85.3524 11.8306 85.9227 10.971 86.6429 10.2462C87.363 9.52132 88.2189 8.94547 89.1617 8.5515C90.1045 8.15753 91.1156 7.95316 92.1374 7.95007H92.1475ZM61.5887 8.15866L68.1661 18.5042V8.16539H70.9989V23.3624H67.9709L61.2051 12.6838V23.3624H58.3723V8.16539L61.5887 8.15866ZM83.3832 8.15866V10.8502H79.2921V23.3624H76.4627V10.8704H72.4052V8.17885L83.3832 8.15866ZM49.2884 10.7459C48.2935 10.7365 47.3183 11.0231 46.4866 11.5691C45.6549 12.1151 45.0041 12.896 44.6171 13.8125C44.23 14.7291 44.1241 15.74 44.3127 16.7169C44.5013 17.6938 44.9759 18.5926 45.6764 19.2992C46.3768 20.0058 47.2714 20.4883 48.2466 20.6855C49.2219 20.8826 50.2337 20.7855 51.1536 20.4065C52.0735 20.0275 52.86 19.3837 53.4133 18.5567C53.9666 17.7298 54.2616 16.7571 54.261 15.7622C54.2677 15.1053 54.1439 14.4536 53.897 13.8448C53.65 13.236 53.2846 12.6823 52.8221 12.2158C52.3596 11.7492 51.8092 11.379 51.2026 11.1267C50.596 10.8744 49.9454 10.745 49.2884 10.7459ZM92.1475 10.7459C91.1527 10.7372 90.1778 11.0243 89.3465 11.5707C88.5153 12.1172 87.8651 12.8983 87.4785 13.8149C87.092 14.7315 86.9865 15.7423 87.1755 16.719C87.3645 17.6957 87.8394 18.5942 88.54 19.3005C89.2406 20.0067 90.1352 20.4889 91.1103 20.6858C92.0855 20.8826 93.0971 20.7853 94.0168 20.4062C94.9365 20.0271 95.7228 19.3832 96.276 18.5564C96.8291 17.7295 97.1241 16.757 97.1234 15.7622C97.1301 15.1041 97.006 14.4513 96.7581 13.8417C96.5103 13.232 96.1438 12.6777 95.6798 12.211C95.2159 11.7442 94.6638 11.3743 94.0557 11.1228C93.4476 10.8713 92.7955 10.7432 92.1374 10.7459H92.1475Z" fill="#23262F"/>
</svg>
